<svg id="visual" viewBox="0 0 900 600" width="900" height="600" xmlns="http://www.w3.org/2000/svg" xmlns:xlink="http://www.w3.org/1999/xlink" version="1.1"><rect x="0" y="0" width="900" height="600" fill="#1F222A"></rect><path d="M0 382L21.5 391.8C43 401.7 86 421.3 128.8 403.7C171.7 386 214.3 331 257.2 297.2C300 263.3 343 250.7 385.8 271.2C428.7 291.7 471.3 345.3 514.2 379.7C557 414 600 429 642.8 401C685.7 373 728.3 302 771.2 270.7C814 239.3 857 247.7 878.5 251.8L900 256L900 601L878.5 601C857 601 814 601 771.2 601C728.3 601 685.7 601 642.8 601C600 601 557 601 514.2 601C471.3 601 428.7 601 385.8 601C343 601 300 601 257.2 601C214.3 601 171.7 601 128.8 601C86 601 43 601 21.5 601L0 601Z" fill="#259f94" stroke-linecap="round" stroke-linejoin="miter"></path></svg>